<?xml version="1.0" encoding="UTF-8" standalone="no"?>
<svg
   xmlns:dc="http://purl.org/dc/elements/1.1/"
   xmlns:cc="http://creativecommons.org/ns#"
   xmlns:rdf="http://www.w3.org/1999/02/22-rdf-syntax-ns#"
   xmlns:svg="http://www.w3.org/2000/svg"
   xmlns="http://www.w3.org/2000/svg"
   xmlns:sodipodi="http://sodipodi.sourceforge.net/DTD/sodipodi-0.dtd"
   xmlns:inkscape="http://www.inkscape.org/namespaces/inkscape"
   width="512"
   height="640"
   id="svg3112"
   version="1.1"
   inkscape:version="0.48.4 r9939"
   sodipodi:docname="arrow.svg">
  <metadata
     id="metadata3133">
    <rdf:RDF>
      <cc:Work
         rdf:about="">
        <dc:format>image/svg+xml</dc:format>
        <dc:type
           rdf:resource="http://purl.org/dc/dcmitype/StillImage" />
        <dc:title></dc:title>
      </cc:Work>
    </rdf:RDF>
  </metadata>
  <defs
     id="defs3131" />
  <sodipodi:namedview
     pagecolor="#ffffff"
     bordercolor="#666666"
     borderopacity="1"
     objecttolerance="10"
     gridtolerance="10"
     guidetolerance="10"
     inkscape:pageopacity="0"
     inkscape:pageshadow="2"
     inkscape:window-width="1375"
     inkscape:window-height="876"
     id="namedview3129"
     showgrid="false"
     inkscape:zoom="1.1390625"
     inkscape:cx="256"
     inkscape:cy="320"
     inkscape:window-x="65"
     inkscape:window-y="24"
     inkscape:window-maximized="1"
     inkscape:current-layer="svg3112" />
  <g
     id="g3114">
    <title
       id="title3116">background</title>
    <rect
       fill="none"
       id="canvas_background"
       height="402"
       width="582"
       y="-1"
       x="-1" />
  </g>
  <g
     id="g3119"
     transform="matrix(0,-1,1,0,-2.6337449,512.87791)">
    <title
       id="title3121">Layer 1</title>
    <g
       id="svg_1">
      <path
         id="svg_2"
         d="M 256,456 C 145.72,456 56,366.28 56,256 56,145.72 145.72,56 256,56 c 110.28,0 200,89.72 200,200 0,110.28 -89.72,200 -200,200 z M 256,72 C 154.542,72 72,154.542 72,256 72,357.458 154.542,440 256,440 357.458,440 440,357.458 440,256 440,154.542 357.458,72 256,72 z"
         inkscape:connector-curvature="0"
         style="fill:#5c0560" />
    </g>
    <g
       id="svg_3">
      <polygon
         id="svg_4"
         points="256,363.313 186.343,293.657 197.657,282.343 256,340.687 314.343,282.343 325.657,293.657 "
         style="fill:#5c0560" />
    </g>
    <g
       id="svg_5">
      <rect
         id="svg_6"
         height="192"
         width="16"
         y="160"
         x="249"
         style="fill:#5c0560" />
    </g>
  </g>
</svg>
