<svg width="100" height="103" xmlns="http://www.w3.org/2000/svg">

 <g>
  <title>background</title>
  <rect fill="none" id="canvas_background" height="105" width="102" y="-1" x="-1"/>
 </g>
 <g>
  <title>Layer 1</title>
  <path id="svg_1" d="m94.982,49.888c0,24.78 -20.083,44.862 -44.862,44.862c-24.778,0 -44.861,-20.082 -44.861,-44.862s20.083,-44.863 44.861,-44.863c24.779,0 44.862,20.082 44.862,44.863z" stroke-miterlimit="10" stroke-width="6" stroke="#000000" fill="none"/>
  <path id="svg_2" d="m56.40113,40.056l-5.684,26.84c-0.238,1.026 -0.314,1.814 -0.314,2.526c0,2.211 1.022,2.923 3.238,2.923c1.416,0 2.052,-0.235 2.525,-0.471c-0.398,5.602 -4.424,8.128 -8.687,8.128c-4.737,0 -8.448,-2.841 -8.448,-9.476c0,-1.495 0.238,-3.233 0.632,-5.131l5.37,-25.34l11.368,0l0,0.001zm-3.552,-20.513c3.473,0 7.29961,2.84 7.29961,6.312c0,3.476 -3.82761,6.241 -7.29961,6.241c-3.476,0 -6.236,-2.765 -6.236,-6.241c-0.001,-3.472 2.76,-6.312 6.236,-6.312z"/>
 </g>
</svg>